<?xml version="1.0" encoding="UTF-8"?>
<!DOCTYPE svg PUBLIC "-//W3C//DTD SVG 1.1//EN" "http://www.w3.org/Graphics/SVG/1.1/DTD/svg11.dtd">
<svg xmlns="http://www.w3.org/2000/svg" version="1.1" width="634px" height="571px" style="shape-rendering:geometricPrecision; text-rendering:geometricPrecision; image-rendering:optimizeQuality; fill-rule:evenodd; clip-rule:evenodd" xmlns:xlink="http://www.w3.org/1999/xlink">
<g><path style="opacity:1" fill="#fefefe" d="M -0.5,-0.5 C 210.833,-0.5 422.167,-0.5 633.5,-0.5C 633.5,189.833 633.5,380.167 633.5,570.5C 422.167,570.5 210.833,570.5 -0.5,570.5C -0.5,380.167 -0.5,189.833 -0.5,-0.5 Z"/></g>
<g><path style="opacity:1" fill="#487d84" d="M 136.5,30.5 C 157.836,30.3334 179.169,30.5 200.5,31C 208.324,32.1575 212.824,36.6575 214,44.5C 214.667,65.5 214.667,86.5 214,107.5C 212.264,114.237 208.097,118.737 201.5,121C 179.5,121.667 157.5,121.667 135.5,121C 128.893,119.393 125.06,115.226 124,108.5C 123.333,87.1667 123.333,65.8333 124,44.5C 125.222,37.1152 129.389,32.4485 136.5,30.5 Z"/></g>
<g><path style="opacity:1" fill="#4d7e85" d="M 299.5,41.5 C 307.294,41.8001 309.461,45.4667 306,52.5C 300.576,55.7732 297.076,54.2732 295.5,48C 295.722,45.0379 297.056,42.8712 299.5,41.5 Z"/></g>
<g><path style="opacity:1" fill="#4c7f85" d="M 248.5,42.5 C 252.167,42.5 255.833,42.5 259.5,42.5C 259.5,60.8333 259.5,79.1667 259.5,97.5C 269.167,97.5 278.833,97.5 288.5,97.5C 288.5,100.5 288.5,103.5 288.5,106.5C 275.167,106.5 261.833,106.5 248.5,106.5C 248.5,85.1667 248.5,63.8333 248.5,42.5 Z"/></g>
<g><path style="opacity:1" fill="#4a7e84" d="M 420.5,41.5 C 438.14,41.3224 449.307,49.6558 454,66.5C 456.352,79.5979 453.186,91.0979 444.5,101C 432.564,108.764 420.23,109.431 407.5,103C 395.872,92.3527 392.039,79.186 396,63.5C 399.834,51.1913 408.001,43.8579 420.5,41.5 Z"/></g>
<g><path style="opacity:1" fill="#f7f8f9" d="M 187.5,48.5 C 190.833,48.5 194.167,48.5 197.5,48.5C 199.416,67.4743 193.416,83.3076 179.5,96C 168.867,102.999 157.2,105.665 144.5,104C 142.751,79.503 153.084,62.1697 175.5,52C 179.756,51.2991 183.756,50.1324 187.5,48.5 Z"/></g>
<g><path style="opacity:1" fill="#fafbfb" d="M 417.5,51.5 C 434.647,49.1443 443.313,56.6443 443.5,74C 443.343,93.5203 434.01,100.854 415.5,96C 406.903,87.9748 404.07,78.1414 407,66.5C 409.047,60.3792 412.547,55.3792 417.5,51.5 Z"/></g>
<g><path style="opacity:1" fill="#497f86" d="M 184.5,56.5 C 186.5,56.5 188.5,56.5 190.5,56.5C 190.5,59.1667 190.5,61.8333 190.5,64.5C 185.879,86.791 172.212,98.1244 149.5,98.5C 151.821,76.527 163.488,62.527 184.5,56.5 Z"/></g>
<g><path style="opacity:1" fill="#abbabc" d="M 184.5,56.5 C 186.607,55.5318 188.941,55.1984 191.5,55.5C 191.81,58.7131 191.477,61.7131 190.5,64.5C 190.5,61.8333 190.5,59.1667 190.5,56.5C 188.5,56.5 186.5,56.5 184.5,56.5 Z"/></g>
<g><path style="opacity:1" fill="#4c7f85" d="M 334.5,41.5 C 337.5,41.5 340.5,41.5 343.5,41.5C 343.5,44.5 343.5,47.5 343.5,50.5C 335.914,49.758 332.248,53.0914 332.5,60.5C 336.167,60.5 339.833,60.5 343.5,60.5C 343.5,63.5 343.5,66.5 343.5,69.5C 339.833,69.5 336.167,69.5 332.5,69.5C 332.5,81.8333 332.5,94.1667 332.5,106.5C 328.833,106.5 325.167,106.5 321.5,106.5C 321.5,94.1667 321.5,81.8333 321.5,69.5C 319.167,69.5 316.833,69.5 314.5,69.5C 314.5,66.5 314.5,63.5 314.5,60.5C 317.167,60.5 319.833,60.5 322.5,60.5C 321.264,50.6017 325.264,44.2684 334.5,41.5 Z"/></g>
<g><path style="opacity:1" fill="#467b82" d="M 296.5,60.5 C 299.833,60.5 303.167,60.5 306.5,60.5C 306.5,75.8333 306.5,91.1667 306.5,106.5C 303.167,106.5 299.833,106.5 296.5,106.5C 296.5,91.1667 296.5,75.8333 296.5,60.5 Z"/></g>
<g><path style="opacity:1" fill="#4a7e85" d="M 460.5,90.5 C 462.5,89.8333 464.5,89.1667 466.5,88.5C 467.873,88.3433 469.207,88.51 470.5,89C 472.236,95.5494 476.57,98.7161 483.5,98.5C 494.321,98.0101 497.654,92.8435 493.5,83C 487.023,80.432 480.357,78.432 473.5,77C 459.696,70.395 457.03,60.7284 465.5,48C 478.009,39.2125 490.176,39.7125 502,49.5C 504.332,52.8219 505.498,56.4885 505.5,60.5C 502.167,60.5 498.833,60.5 495.5,60.5C 494.868,55.6951 492.201,52.5284 487.5,51C 481.355,49.412 476.189,50.912 472,55.5C 470.902,59.5052 471.735,63.0052 474.5,66C 480.973,68.6348 487.64,70.6348 494.5,72C 504.805,76.1096 508.639,83.6096 506,94.5C 502.808,101.69 497.308,105.857 489.5,107C 479.915,108.754 471.415,106.587 464,100.5C 461.416,97.6644 460.249,94.3311 460.5,90.5 Z"/></g>
<g><path style="opacity:1" fill="#477c83" d="M 388.5,77.5 C 387.527,79.9479 387.194,82.6146 387.5,85.5C 376.986,85.1724 366.653,85.5058 356.5,86.5C 358.109,95.4742 363.443,99.3076 372.5,98C 375.167,96.6667 377.167,94.6667 378.5,92C 381.482,91.502 384.482,91.3354 387.5,91.5C 386.224,102.266 380.057,107.599 369,107.5C 353.704,106.364 346.204,98.0302 346.5,82.5C 346.481,68.0212 353.647,60.0212 368,58.5C 379.515,59.85 386.348,66.1834 388.5,77.5 Z"/></g>
<g><path style="opacity:1" fill="#f5f8f9" d="M 364.5,67.5 C 373.052,66.424 377.719,70.0907 378.5,78.5C 371.5,78.5 364.5,78.5 357.5,78.5C 357.813,73.5257 360.146,69.859 364.5,67.5 Z"/></g>
<g><path style="opacity:1" fill="#315c62" d="M 388.5,77.5 C 388.5,80.5 388.5,83.5 388.5,86.5C 377.833,86.5 367.167,86.5 356.5,86.5C 366.653,85.5058 376.986,85.1724 387.5,85.5C 387.194,82.6146 387.527,79.9479 388.5,77.5 Z"/></g>
<g><path style="opacity:1" fill="#97b0b4" d="M 466.5,88.5 C 464.5,89.1667 462.5,89.8333 460.5,90.5C 459.957,90.44 459.624,90.1067 459.5,89.5C 461.743,88.5258 464.076,88.1924 466.5,88.5 Z"/></g>
<g><path style="opacity:1" fill="#a3ced1" d="M 505.5,168.5 C 507.857,168.337 510.19,168.503 512.5,169C 513.081,169.893 513.415,170.893 513.5,172C 510.542,190.329 506.875,208.495 502.5,226.5C 501.349,227.731 500.183,227.731 499,226.5C 495.3,219.48 491.633,212.48 488,205.5C 487.282,204.549 486.449,204.383 485.5,205C 435.067,255.599 384.401,306.099 333.5,356.5C 331.757,353.426 329.924,350.426 328,347.5C 327.251,346.365 327.417,345.365 328.5,344.5C 378.653,294.847 428.653,245.014 478.5,195C 471.621,191.394 464.621,188.061 457.5,185C 455.789,183.867 455.289,182.367 456,180.5C 458.93,178.745 462.097,177.578 465.5,177C 479.104,174.76 492.437,171.927 505.5,168.5 Z"/></g>
<g><path style="opacity:1" fill="#a2cdd1" d="M 198.5,321.5 C 197.391,321.443 196.391,321.11 195.5,320.5C 191.396,306.625 184.896,293.958 176,282.5C 167.385,271.717 157.885,261.717 147.5,252.5C 147.167,252.667 146.833,252.833 146.5,253C 164.997,272.998 179.664,295.498 190.5,320.5C 166.572,318.107 145.739,308.44 128,291.5C 116.487,276.846 109.487,260.179 107,241.5C 106.237,230.8 106.404,220.133 107.5,209.5C 129.927,211.031 150.594,217.865 169.5,230C 190.651,246.58 200.985,268.413 200.5,295.5C 200.36,303.45 199.36,311.283 197.5,319C 197.743,319.902 198.077,320.735 198.5,321.5 Z"/></g>
<g><path style="opacity:1" fill="#a2cdd1" d="M 217.5,320.5 C 217.158,321.338 216.492,321.672 215.5,321.5C 209.794,284.077 223.794,256.911 257.5,240C 267.962,235.145 278.962,232.645 290.5,232.5C 292.054,280.112 269.887,309.778 224,321.5C 223.5,321.167 223,320.833 222.5,320.5C 233.524,301.706 245.357,283.706 258,266.5C 240.792,281.854 227.292,299.854 217.5,320.5 Z"/></g>
<g><path style="opacity:1" fill="#4b7d84" d="M 195.5,320.5 C 196.391,321.11 197.391,321.443 198.5,321.5C 200.889,331.173 203.389,340.839 206,350.5C 209.184,340.808 212.351,331.141 215.5,321.5C 216.492,321.672 217.158,321.338 217.5,320.5C 218.708,321.234 220.041,321.567 221.5,321.5C 218.834,330.48 216.001,339.48 213,348.5C 210.179,362.017 208.512,375.683 208,389.5C 207.667,424.167 207.333,458.833 207,493.5C 205.062,494.86 203.396,494.527 202,492.5C 201.667,450.5 201.333,408.5 201,366.5C 199.566,351.765 196.399,337.431 191.5,323.5C 191.719,321.085 193.052,320.085 195.5,320.5 Z"/></g>
<g><path style="opacity:1" fill="#8ea6aa" d="M 522.5,554.5 C 521.501,464.002 521.167,373.335 521.5,282.5C 504.167,282.5 486.833,282.5 469.5,282.5C 469.5,373.5 469.5,464.5 469.5,555.5C 463.974,555.821 458.64,555.488 453.5,554.5C 458.5,554.5 463.5,554.5 468.5,554.5C 468.5,463.5 468.5,372.5 468.5,281.5C 486.5,281.5 504.5,281.5 522.5,281.5C 522.5,372.5 522.5,463.5 522.5,554.5 Z"/></g>
<g><path style="opacity:1" fill="#477d84" d="M 522.5,554.5 C 531.857,554.168 541.19,554.502 550.5,555.5C 553.1,558.041 553.1,560.541 550.5,563C 397.5,563.667 244.5,563.667 91.5,563C 88.9659,560.413 88.9659,557.747 91.5,555C 111.164,554.5 130.831,554.333 150.5,554.5C 150.5,546.833 150.5,539.167 150.5,531.5C 167.167,531.5 183.833,531.5 200.5,531.5C 200.5,539.167 200.5,546.833 200.5,554.5C 204.97,555.486 209.637,555.819 214.5,555.5C 214.5,540.167 214.5,524.833 214.5,509.5C 226.505,509.667 238.505,509.5 250.5,509C 248.333,506.833 246.167,504.667 244,502.5C 242.75,499.923 242.416,497.257 243,494.5C 250.701,478.814 258.368,463.147 266,447.5C 268.731,435.806 271.565,424.139 274.5,412.5C 273.217,410.159 272.217,407.659 271.5,405C 274.399,393.471 277.399,381.971 280.5,370.5C 280.167,369.5 279.833,368.5 279.5,367.5C 274.22,371.278 269.386,375.611 265,380.5C 259.303,391.275 253.803,402.108 248.5,413C 245.783,414.033 243.949,413.2 243,410.5C 242.333,407.167 242.333,403.833 243,400.5C 246.58,388.68 251.246,377.347 257,366.5C 266.245,356.252 276.412,347.085 287.5,339C 299.183,338.461 302.017,333.294 296,323.5C 292.45,313.831 294.95,306.331 303.5,301C 308.833,300.333 314.167,300.333 319.5,301C 324.886,302.701 325.886,305.868 322.5,310.5C 326.19,317.07 326.357,323.737 323,330.5C 319.802,332.331 316.968,334.498 314.5,337C 317.874,341.573 321.374,346.073 325,350.5C 328.058,358.283 331.392,365.95 335,373.5C 338.351,375.994 342.185,377.16 346.5,377C 353.508,377.165 360.508,377.165 367.5,377C 371.485,380.286 371.485,383.619 367.5,387C 355.926,389.269 344.259,389.935 332.5,389C 326.026,386.526 321.526,382.026 319,375.5C 316.794,383.118 314.794,390.784 313,398.5C 312.202,400.259 312.369,401.926 313.5,403.5C 320.939,405.721 328.272,408.221 335.5,411C 343.204,414.376 345.704,420.209 343,428.5C 338.603,442.667 335.27,457.001 333,471.5C 335.53,474.063 337.697,476.897 339.5,480C 342.817,480.498 346.15,480.665 349.5,480.5C 349.56,481.043 349.893,481.376 350.5,481.5C 351.5,464.179 351.833,446.846 351.5,429.5C 362.833,429.5 374.167,429.5 385.5,429.5C 385.333,471.501 385.5,513.501 386,555.5C 386.5,513.168 386.667,470.835 386.5,428.5C 387.499,470.33 387.832,512.33 387.5,554.5C 392.305,555.487 397.305,555.821 402.5,555.5C 402.5,489.5 402.5,423.5 402.5,357.5C 419.5,357.5 436.5,357.5 453.5,357.5C 453.5,423.167 453.5,488.833 453.5,554.5C 458.64,555.488 463.974,555.821 469.5,555.5C 469.5,464.5 469.5,373.5 469.5,282.5C 486.833,282.5 504.167,282.5 521.5,282.5C 521.167,373.335 521.501,464.002 522.5,554.5 Z"/></g>
<g><path style="opacity:1" fill="#fdfdfe" d="M 285.5,480.5 C 284.502,504.994 284.169,529.661 284.5,554.5C 279.167,554.5 273.833,554.5 268.5,554.5C 268.829,540.656 268.496,526.99 267.5,513.5C 267.649,512.448 267.483,511.448 267,510.5C 263.692,505.692 260.192,501.025 256.5,496.5C 265.667,482.833 274.833,469.167 284,455.5C 288.52,445.617 292.853,435.617 297,425.5C 298.062,424.903 299.228,424.57 300.5,424.5C 308.564,425.617 316.564,426.95 324.5,428.5C 322.291,443.332 319.958,458.165 317.5,473C 317.917,475.498 318.251,477.998 318.5,480.5C 307.5,480.5 296.5,480.5 285.5,480.5 Z"/></g>
<g><path style="opacity:1" fill="#91a8aa" d="M 402.5,357.5 C 402.5,423.5 402.5,489.5 402.5,555.5C 397.305,555.821 392.305,555.487 387.5,554.5C 392.167,554.5 396.833,554.5 401.5,554.5C 401.168,488.665 401.501,422.998 402.5,357.5 Z"/></g>
<g><path style="opacity:1" fill="#3d6f76" d="M 386.5,428.5 C 386.667,470.835 386.5,513.168 386,555.5C 385.5,513.501 385.333,471.501 385.5,429.5C 374.167,429.5 362.833,429.5 351.5,429.5C 351.833,446.846 351.5,464.179 350.5,481.5C 349.893,481.376 349.56,481.043 349.5,480.5C 350.497,463.341 350.83,446.008 350.5,428.5C 362.5,428.5 374.5,428.5 386.5,428.5 Z"/></g>
<g><path style="opacity:1" fill="#c1cdcf" d="M 214.5,509.5 C 214.5,524.833 214.5,540.167 214.5,555.5C 209.637,555.819 204.97,555.486 200.5,554.5C 204.833,554.5 209.167,554.5 213.5,554.5C 213.171,539.324 213.504,524.324 214.5,509.5 Z"/></g>
<g><path style="opacity:1" fill="#9eb4b7" d="M 285.5,480.5 C 285.5,505.5 285.5,530.5 285.5,555.5C 279.5,555.5 273.5,555.5 267.5,555.5C 267.5,541.5 267.5,527.5 267.5,513.5C 268.496,526.99 268.829,540.656 268.5,554.5C 273.833,554.5 279.167,554.5 284.5,554.5C 284.169,529.661 284.502,504.994 285.5,480.5 Z"/></g>
</svg>
